<svg xmlns="http://www.w3.org/2000/svg" viewBox="0 6 90 102" width="512" height="512">
  <defs>
    <clipPath id="shield">
      <path d="M8,24 Q45,5 82,24 L82,62 Q82,90 45,100 Q8,90 8,62 Z"/>
    </clipPath>
  </defs>
  <path d="M8,24 Q45,5 82,24 L82,62 Q82,90 45,100 Q8,90 8,62 Z" fill="#1e293b"/>
  <g clip-path="url(#shield)">
    <line x1="45" y1="0" x2="45" y2="102" stroke="#22c55e" stroke-width="1" opacity="0.22"/>
    <line x1="0" y1="55" x2="90" y2="55" stroke="#22c55e" stroke-width="1" opacity="0.22"/>
    <rect x="16" y="27" width="22" height="6" rx="2" fill="#ef4444"/>
    <polygon points="16,33 38,33 34,51 20,51" fill="#ef4444"/>
    <rect x="52" y="26" width="22" height="22" rx="3.5" fill="#e2e8f0"/>
    <circle cx="57.5" cy="31.5" r="2.2" fill="#334155"/>
    <circle cx="68.5" cy="31.5" r="2.2" fill="#334155"/>
    <circle cx="63" cy="37" r="2.2" fill="#334155"/>
    <circle cx="57.5" cy="42.5" r="2.2" fill="#334155"/>
    <circle cx="68.5" cy="42.5" r="2.2" fill="#334155"/>
    <rect x="20" y="62" width="17" height="22" rx="2.5" fill="#e2e8f0"/>
    <path d="M28.5,79 C24,77 22,74 22,71 A5,5 0 0,1 28.5,68 A5,5 0 0,1 35,71 C35,74 33,77 28.5,79 Z" fill="#ef4444"/>
    <circle cx="62" cy="72" r="12" fill="#ffffff"/>
  </g>
  <path d="M8,24 Q45,5 82,24 L82,62 Q82,90 45,100 Q8,90 8,62 Z" fill="none" stroke="#22c55e" stroke-width="2.5"/>
</svg>
