<svg xmlns="http://www.w3.org/2000/svg" viewBox="0 0 100 100" width="512" height="512">
  <rect width="100" height="100" fill="#1A4731"/>
  <rect x="12" y="66" width="76" height="5" rx="2" fill="white" fill-opacity="0.45"/>

  <circle cx="12" cy="32" r="6" fill="white"/>
  <line x1="12" y1="38" x2="12" y2="58" stroke="white" stroke-width="3.5" stroke-linecap="round"/>
  <line x1="12" y1="38" x2="2" y2="24" stroke="white" stroke-width="3.5" stroke-linecap="round"/>
  <line x1="12" y1="38" x2="22" y2="24" stroke="white" stroke-width="3.5" stroke-linecap="round"/>
  <line x1="12" y1="58" x2="4" y2="72" stroke="white" stroke-width="3.5" stroke-linecap="round"/>
  <line x1="12" y1="58" x2="20" y2="72" stroke="white" stroke-width="3.5" stroke-linecap="round"/>
  <circle cx="10" cy="30" r="1.8" fill="#1A4731"/>
  <circle cx="14" cy="30" r="1.8" fill="#1A4731"/>
  <path d="M9,34 Q12,37 15,34" fill="none" stroke="#1A4731" stroke-width="1.5" stroke-linecap="round"/>

  <path d="M24,50 L32,50 L30,66 L26,66 Z" fill="#CC2222"/>
  <path d="M34,50 L42,50 L40,66 L36,66 Z" fill="#CC2222"/>

  <circle cx="88" cy="32" r="6" fill="white"/>
  <line x1="88" y1="38" x2="88" y2="58" stroke="white" stroke-width="3.5" stroke-linecap="round"/>
  <line x1="88" y1="46" x2="98" y2="54" stroke="white" stroke-width="3.5" stroke-linecap="round"/>
  <line x1="88" y1="46" x2="72" y2="34" stroke="white" stroke-width="3.5" stroke-linecap="round"/>
  <line x1="88" y1="58" x2="96" y2="72" stroke="white" stroke-width="3.5" stroke-linecap="round"/>
  <line x1="88" y1="58" x2="80" y2="72" stroke="white" stroke-width="3.5" stroke-linecap="round"/>
  <circle cx="86" cy="30" r="1.8" fill="#1A4731"/>
  <circle cx="90" cy="30" r="1.8" fill="#1A4731"/>
  <path d="M85,34 L91,34" fill="none" stroke="#1A4731" stroke-width="1.5" stroke-linecap="round"/>

  <path d="M58,50 L66,50 L64,66 L60,66 Z" fill="#CC2222"/>
  <path d="M68,50 L76,50 L74,66 L70,66 Z" fill="#CC2222"/>

  <circle cx="62" cy="47" r="5" fill="white"/>
</svg>
